<mxfile host="65bd71144e">
    <diagram name="ページ1" id="5iqo3vTNiSGjk-yixdEq">
        <mxGraphModel dx="1501" dy="884" grid="1" gridSize="10" guides="1" tooltips="1" connect="1" arrows="1" fold="1" page="1" pageScale="1" pageWidth="827" pageHeight="1169" math="0" shadow="0">
            <root>
                <mxCell id="0"/>
                <mxCell id="1" parent="0"/>
                <mxCell id="oU1_fxm8376zEesIFjcv-2" value="DATA" style="rounded=0;whiteSpace=wrap;html=1;" parent="1" vertex="1">
                    <mxGeometry x="160" y="160" width="640" height="40" as="geometry"/>
                </mxCell>
                <mxCell id="oU1_fxm8376zEesIFjcv-3" value="CANID" style="rounded=0;whiteSpace=wrap;html=1;" parent="1" vertex="1">
                    <mxGeometry x="40" y="160" width="120" height="40" as="geometry"/>
                </mxCell>
                <mxCell id="oU1_fxm8376zEesIFjcv-5" value="DATA(unit/type)" style="rounded=0;whiteSpace=wrap;html=1;" parent="1" vertex="1">
                    <mxGeometry x="160" y="160" width="640" height="40" as="geometry"/>
                </mxCell>
                <mxCell id="oU1_fxm8376zEesIFjcv-6" value="CANID" style="rounded=0;whiteSpace=wrap;html=1;" parent="1" vertex="1">
                    <mxGeometry x="-160" y="160" width="320" height="40" as="geometry"/>
                </mxCell>
                <mxCell id="oU1_fxm8376zEesIFjcv-7" value="" style="rounded=0;whiteSpace=wrap;html=1;" parent="1" vertex="1">
                    <mxGeometry x="160" y="240" width="640" height="40" as="geometry"/>
                </mxCell>
                <mxCell id="oU1_fxm8376zEesIFjcv-8" value="0x4000 + board_id" style="rounded=0;whiteSpace=wrap;html=1;" parent="1" vertex="1">
                    <mxGeometry x="-160" y="240" width="320" height="40" as="geometry"/>
                </mxCell>
                <mxCell id="oU1_fxm8376zEesIFjcv-9" value="8&lt;span style=&quot;background-color: initial;&quot;&gt;byte&lt;/span&gt;" style="text;html=1;align=center;verticalAlign=middle;whiteSpace=wrap;rounded=0;" parent="1" vertex="1">
                    <mxGeometry x="450" y="120" width="60" height="30" as="geometry"/>
                </mxCell>
                <mxCell id="oU1_fxm8376zEesIFjcv-10" value="&lt;span style=&quot;background-color: initial;&quot;&gt;4byte&lt;/span&gt;" style="text;html=1;align=center;verticalAlign=middle;whiteSpace=wrap;rounded=0;" parent="1" vertex="1">
                    <mxGeometry x="-30" y="120" width="60" height="30" as="geometry"/>
                </mxCell>
                <mxCell id="oU1_fxm8376zEesIFjcv-11" value="Battery Volatage&lt;div&gt;Battery Current&lt;/div&gt;" style="text;html=1;align=center;verticalAlign=middle;whiteSpace=wrap;rounded=0;" parent="1" vertex="1">
                    <mxGeometry x="-310" y="230" width="130" height="60" as="geometry"/>
                </mxCell>
                <mxCell id="oU1_fxm8376zEesIFjcv-12" value="battery voltage(100uV/uint32_t)" style="rounded=0;whiteSpace=wrap;html=1;" parent="1" vertex="1">
                    <mxGeometry x="160" y="240" width="320" height="40" as="geometry"/>
                </mxCell>
                <mxCell id="oU1_fxm8376zEesIFjcv-13" value="battery current(mA/int32_t)" style="rounded=0;whiteSpace=wrap;html=1;" parent="1" vertex="1">
                    <mxGeometry x="480" y="240" width="320" height="40" as="geometry"/>
                </mxCell>
                <mxCell id="oU1_fxm8376zEesIFjcv-14" value="" style="rounded=0;whiteSpace=wrap;html=1;" parent="1" vertex="1">
                    <mxGeometry x="160" y="320" width="640" height="40" as="geometry"/>
                </mxCell>
                <mxCell id="oU1_fxm8376zEesIFjcv-15" value="0x4100 + board_id" style="rounded=0;whiteSpace=wrap;html=1;" parent="1" vertex="1">
                    <mxGeometry x="-160" y="320" width="320" height="40" as="geometry"/>
                </mxCell>
                <mxCell id="oU1_fxm8376zEesIFjcv-16" value="Cell Max/Min Voltage" style="text;html=1;align=center;verticalAlign=middle;whiteSpace=wrap;rounded=0;" parent="1" vertex="1">
                    <mxGeometry x="-310" y="310" width="130" height="60" as="geometry"/>
                </mxCell>
                <mxCell id="oU1_fxm8376zEesIFjcv-17" value="Min Cell Voltage(100uV/uint32_t)" style="rounded=0;whiteSpace=wrap;html=1;" parent="1" vertex="1">
                    <mxGeometry x="160" y="320" width="320" height="40" as="geometry"/>
                </mxCell>
                <mxCell id="oU1_fxm8376zEesIFjcv-18" value="Max Cell Voltage(100uV/uint32_t)" style="rounded=0;whiteSpace=wrap;html=1;" parent="1" vertex="1">
                    <mxGeometry x="480" y="320" width="320" height="40" as="geometry"/>
                </mxCell>
                <mxCell id="oU1_fxm8376zEesIFjcv-19" value="" style="rounded=0;whiteSpace=wrap;html=1;" parent="1" vertex="1">
                    <mxGeometry x="160" y="600" width="640" height="40" as="geometry"/>
                </mxCell>
                <mxCell id="oU1_fxm8376zEesIFjcv-20" value="0x4300 + board_id" style="rounded=0;whiteSpace=wrap;html=1;" parent="1" vertex="1">
                    <mxGeometry x="-160" y="600" width="320" height="40" as="geometry"/>
                </mxCell>
                <mxCell id="oU1_fxm8376zEesIFjcv-21" value="Max/Min/AveTemp" style="text;html=1;align=center;verticalAlign=middle;whiteSpace=wrap;rounded=0;" parent="1" vertex="1">
                    <mxGeometry x="-310" y="590" width="130" height="60" as="geometry"/>
                </mxCell>
                <mxCell id="oU1_fxm8376zEesIFjcv-22" value="" style="rounded=0;whiteSpace=wrap;html=1;" parent="1" vertex="1">
                    <mxGeometry x="160" y="600" width="320" height="40" as="geometry"/>
                </mxCell>
                <mxCell id="oU1_fxm8376zEesIFjcv-24" value="battery side average temp(degree/int16_t)" style="rounded=0;whiteSpace=wrap;html=1;" parent="1" vertex="1">
                    <mxGeometry x="160" y="600" width="160" height="40" as="geometry"/>
                </mxCell>
                <mxCell id="oU1_fxm8376zEesIFjcv-25" value="battery side max temp(degree/int16_t)" style="rounded=0;whiteSpace=wrap;html=1;" parent="1" vertex="1">
                    <mxGeometry x="320" y="600" width="160" height="40" as="geometry"/>
                </mxCell>
                <mxCell id="oU1_fxm8376zEesIFjcv-26" value="pcb side average temp(degree/int16_t)" style="rounded=0;whiteSpace=wrap;html=1;" parent="1" vertex="1">
                    <mxGeometry x="480" y="600" width="160" height="40" as="geometry"/>
                </mxCell>
                <mxCell id="oU1_fxm8376zEesIFjcv-27" value="pcb side max temp&lt;br&gt;(degree/int16_t)" style="rounded=0;whiteSpace=wrap;html=1;" parent="1" vertex="1">
                    <mxGeometry x="640" y="600" width="160" height="40" as="geometry"/>
                </mxCell>
                <mxCell id="oU1_fxm8376zEesIFjcv-28" value="" style="rounded=0;whiteSpace=wrap;html=1;" parent="1" vertex="1">
                    <mxGeometry x="160" y="400" width="640" height="40" as="geometry"/>
                </mxCell>
                <mxCell id="oU1_fxm8376zEesIFjcv-29" value="0x4200 + board_id" style="rounded=0;whiteSpace=wrap;html=1;" parent="1" vertex="1">
                    <mxGeometry x="-160" y="400" width="320" height="40" as="geometry"/>
                </mxCell>
                <mxCell id="oU1_fxm8376zEesIFjcv-30" value="SoC/Duty/" style="text;html=1;align=center;verticalAlign=middle;whiteSpace=wrap;rounded=0;" parent="1" vertex="1">
                    <mxGeometry x="-310" y="390" width="130" height="60" as="geometry"/>
                </mxCell>
                <mxCell id="oU1_fxm8376zEesIFjcv-31" value="" style="rounded=0;whiteSpace=wrap;html=1;" parent="1" vertex="1">
                    <mxGeometry x="160" y="400" width="320" height="40" as="geometry"/>
                </mxCell>
                <mxCell id="oU1_fxm8376zEesIFjcv-32" value="hiCurrentLoadVoltage&lt;div&gt;(WIP)&lt;/div&gt;" style="rounded=0;whiteSpace=wrap;html=1;" parent="1" vertex="1">
                    <mxGeometry x="160" y="400" width="160" height="40" as="geometry"/>
                </mxCell>
                <mxCell id="oU1_fxm8376zEesIFjcv-33" value="SoC Ah&lt;div&gt;(WIP)&lt;/div&gt;" style="rounded=0;whiteSpace=wrap;html=1;" parent="1" vertex="1">
                    <mxGeometry x="320" y="400" width="160" height="40" as="geometry"/>
                </mxCell>
                <mxCell id="oU1_fxm8376zEesIFjcv-34" value="SoC&lt;div&gt;(WIP)&lt;/div&gt;" style="rounded=0;whiteSpace=wrap;html=1;" parent="1" vertex="1">
                    <mxGeometry x="480" y="400" width="80" height="40" as="geometry"/>
                </mxCell>
                <mxCell id="oU1_fxm8376zEesIFjcv-35" value="DisCharge Duty" style="rounded=0;whiteSpace=wrap;html=1;" parent="1" vertex="1">
                    <mxGeometry x="640" y="400" width="80" height="40" as="geometry"/>
                </mxCell>
                <mxCell id="oU1_fxm8376zEesIFjcv-36" value="Charge Duty&lt;div&gt;(WIP)&lt;/div&gt;" style="rounded=0;whiteSpace=wrap;html=1;" parent="1" vertex="1">
                    <mxGeometry x="560" y="400" width="80" height="40" as="geometry"/>
                </mxCell>
                <mxCell id="oU1_fxm8376zEesIFjcv-37" value="Flag" style="rounded=0;whiteSpace=wrap;html=1;" parent="1" vertex="1">
                    <mxGeometry x="720" y="400" width="80" height="40" as="geometry"/>
                </mxCell>
                <mxCell id="oU1_fxm8376zEesIFjcv-38" value="" style="endArrow=none;html=1;rounded=0;entryX=1;entryY=1;entryDx=0;entryDy=0;exitX=0;exitY=0;exitDx=0;exitDy=0;" parent="1" source="oU1_fxm8376zEesIFjcv-40" target="oU1_fxm8376zEesIFjcv-35" edge="1">
                    <mxGeometry width="50" height="50" relative="1" as="geometry">
                        <mxPoint x="160" y="480" as="sourcePoint"/>
                        <mxPoint x="320" y="370" as="targetPoint"/>
                    </mxGeometry>
                </mxCell>
                <mxCell id="oU1_fxm8376zEesIFjcv-39" value="" style="endArrow=none;html=1;rounded=0;entryX=1;entryY=1;entryDx=0;entryDy=0;exitX=1;exitY=0;exitDx=0;exitDy=0;" parent="1" source="oU1_fxm8376zEesIFjcv-40" target="oU1_fxm8376zEesIFjcv-37" edge="1">
                    <mxGeometry width="50" height="50" relative="1" as="geometry">
                        <mxPoint x="800" y="480" as="sourcePoint"/>
                        <mxPoint x="730" y="450" as="targetPoint"/>
                    </mxGeometry>
                </mxCell>
                <mxCell id="oU1_fxm8376zEesIFjcv-40" value="" style="rounded=0;whiteSpace=wrap;html=1;" parent="1" vertex="1">
                    <mxGeometry x="180" y="480" width="640" height="40" as="geometry"/>
                </mxCell>
                <mxCell id="oU1_fxm8376zEesIFjcv-41" value="WIP" style="rounded=0;whiteSpace=wrap;html=1;" parent="1" vertex="1">
                    <mxGeometry x="180" y="480" width="80" height="40" as="geometry"/>
                </mxCell>
                <mxCell id="oU1_fxm8376zEesIFjcv-42" value="hiLoadEnable&lt;div&gt;(WIP)&lt;/div&gt;" style="rounded=0;whiteSpace=wrap;html=1;" parent="1" vertex="1">
                    <mxGeometry x="420" y="480" width="80" height="40" as="geometry"/>
                </mxCell>
                <mxCell id="oU1_fxm8376zEesIFjcv-43" value="WIP" style="rounded=0;whiteSpace=wrap;html=1;" parent="1" vertex="1">
                    <mxGeometry x="260" y="480" width="80" height="40" as="geometry"/>
                </mxCell>
                <mxCell id="oU1_fxm8376zEesIFjcv-44" value="WIP" style="rounded=0;whiteSpace=wrap;html=1;" parent="1" vertex="1">
                    <mxGeometry x="340" y="480" width="80" height="40" as="geometry"/>
                </mxCell>
                <mxCell id="oU1_fxm8376zEesIFjcv-45" value="DisCharge&lt;div&gt;Desired&lt;/div&gt;" style="rounded=0;whiteSpace=wrap;html=1;" parent="1" vertex="1">
                    <mxGeometry x="500" y="480" width="80" height="40" as="geometry"/>
                </mxCell>
                <mxCell id="oU1_fxm8376zEesIFjcv-46" value="DisCharge&lt;div&gt;Permission&lt;/div&gt;" style="rounded=0;whiteSpace=wrap;html=1;" parent="1" vertex="1">
                    <mxGeometry x="580" y="480" width="80" height="40" as="geometry"/>
                </mxCell>
                <mxCell id="oU1_fxm8376zEesIFjcv-47" value="Charge&lt;div&gt;Desired&lt;/div&gt;&lt;div&gt;(WIP)&lt;/div&gt;" style="rounded=0;whiteSpace=wrap;html=1;" parent="1" vertex="1">
                    <mxGeometry x="660" y="480" width="80" height="40" as="geometry"/>
                </mxCell>
                <mxCell id="oU1_fxm8376zEesIFjcv-48" value="Charge Permission&lt;div&gt;(WIP)&lt;/div&gt;" style="rounded=0;whiteSpace=wrap;html=1;" parent="1" vertex="1">
                    <mxGeometry x="740" y="480" width="80" height="40" as="geometry"/>
                </mxCell>
                <mxCell id="3beT_dmG7uhByHbc7Ueh-1" value="" style="rounded=0;whiteSpace=wrap;html=1;" parent="1" vertex="1">
                    <mxGeometry x="160" y="680" width="640" height="40" as="geometry"/>
                </mxCell>
                <mxCell id="3beT_dmG7uhByHbc7Ueh-2" value="0x4400 + board_id" style="rounded=0;whiteSpace=wrap;html=1;" parent="1" vertex="1">
                    <mxGeometry x="-160" y="680" width="320" height="40" as="geometry"/>
                </mxCell>
                <mxCell id="3beT_dmG7uhByHbc7Ueh-3" value="Each Cell Voltage" style="text;html=1;align=center;verticalAlign=middle;whiteSpace=wrap;rounded=0;" parent="1" vertex="1">
                    <mxGeometry x="-310" y="670" width="130" height="60" as="geometry"/>
                </mxCell>
                <mxCell id="3beT_dmG7uhByHbc7Ueh-4" value="" style="rounded=0;whiteSpace=wrap;html=1;" parent="1" vertex="1">
                    <mxGeometry x="160" y="680" width="320" height="40" as="geometry"/>
                </mxCell>
                <mxCell id="3beT_dmG7uhByHbc7Ueh-9" value="cell voltage(10mV/uint16_t)" style="rounded=0;whiteSpace=wrap;html=1;" parent="1" vertex="1">
                    <mxGeometry x="160" y="680" width="220" height="40" as="geometry"/>
                </mxCell>
                <mxCell id="3beT_dmG7uhByHbc7Ueh-10" value="cell voltage(10mV/uint16_t)" style="rounded=0;whiteSpace=wrap;html=1;" parent="1" vertex="1">
                    <mxGeometry x="380" y="680" width="200" height="40" as="geometry"/>
                </mxCell>
                <mxCell id="3beT_dmG7uhByHbc7Ueh-11" value="cell voltage(10mV/uint16_t)" style="rounded=0;whiteSpace=wrap;html=1;" parent="1" vertex="1">
                    <mxGeometry x="580" y="680" width="220" height="40" as="geometry"/>
                </mxCell>
                <mxCell id="3beT_dmG7uhByHbc7Ueh-13" value="" style="endArrow=none;html=1;rounded=0;entryX=0;entryY=1;entryDx=0;entryDy=0;" parent="1" target="3beT_dmG7uhByHbc7Ueh-10" edge="1">
                    <mxGeometry width="50" height="50" relative="1" as="geometry">
                        <mxPoint x="640" y="800" as="sourcePoint"/>
                        <mxPoint x="810" y="450" as="targetPoint"/>
                    </mxGeometry>
                </mxCell>
                <mxCell id="3beT_dmG7uhByHbc7Ueh-14" value="" style="endArrow=none;html=1;rounded=0;entryX=0;entryY=1;entryDx=0;entryDy=0;" parent="1" target="3beT_dmG7uhByHbc7Ueh-9" edge="1">
                    <mxGeometry width="50" height="50" relative="1" as="geometry">
                        <mxPoint y="800" as="sourcePoint"/>
                        <mxPoint x="300" y="760" as="targetPoint"/>
                    </mxGeometry>
                </mxCell>
                <mxCell id="3beT_dmG7uhByHbc7Ueh-15" value="" style="rounded=0;whiteSpace=wrap;html=1;" parent="1" vertex="1">
                    <mxGeometry y="800" width="640" height="40" as="geometry"/>
                </mxCell>
                <mxCell id="3beT_dmG7uhByHbc7Ueh-16" value="16bit" style="text;html=1;align=center;verticalAlign=middle;whiteSpace=wrap;rounded=0;" parent="1" vertex="1">
                    <mxGeometry x="280" y="770" width="60" height="30" as="geometry"/>
                </mxCell>
                <mxCell id="3beT_dmG7uhByHbc7Ueh-17" value="cell_id(0-127)" style="rounded=0;whiteSpace=wrap;html=1;" parent="1" vertex="1">
                    <mxGeometry y="800" width="280" height="40" as="geometry"/>
                </mxCell>
                <mxCell id="3beT_dmG7uhByHbc7Ueh-18" value="7bit" style="text;html=1;align=center;verticalAlign=middle;whiteSpace=wrap;rounded=0;" parent="1" vertex="1">
                    <mxGeometry x="150" y="770" width="60" height="30" as="geometry"/>
                </mxCell>
                <mxCell id="3beT_dmG7uhByHbc7Ueh-19" value="9bit" style="text;html=1;align=center;verticalAlign=middle;whiteSpace=wrap;rounded=0;" parent="1" vertex="1">
                    <mxGeometry x="460" y="770" width="60" height="30" as="geometry"/>
                </mxCell>
                <mxCell id="3beT_dmG7uhByHbc7Ueh-20" value="cell_voltage(0-511)" style="rounded=0;whiteSpace=wrap;html=1;" parent="1" vertex="1">
                    <mxGeometry x="280" y="800" width="360" height="40" as="geometry"/>
                </mxCell>
                <mxCell id="3beT_dmG7uhByHbc7Ueh-22" value="&lt;h1 style=&quot;margin-top: 0px;&quot;&gt;Cell IDの計算&lt;/h1&gt;&lt;p&gt;Master基板に接続されているSlave基板をMaster基板に近い方から&lt;b&gt;IC_ID&lt;/b&gt;をふる。各基板12セルに&lt;b&gt;IC_CELL_ID&lt;/b&gt;をふる。&lt;/p&gt;&lt;p&gt;&lt;b&gt;&lt;font style=&quot;font-size: 16px;&quot;&gt;計算式&lt;/font&gt;&lt;/b&gt;&lt;/p&gt;&lt;p&gt;&amp;nbsp;Cell ID = IC_ID * 12 + IC_CELL_ID&lt;/p&gt;" style="text;html=1;whiteSpace=wrap;overflow=hidden;rounded=0;" parent="1" vertex="1">
                    <mxGeometry x="-210" y="730" width="200" height="170" as="geometry"/>
                </mxCell>
                <mxCell id="3beT_dmG7uhByHbc7Ueh-23" value="" style="curved=1;endArrow=classic;html=1;rounded=0;entryX=0.546;entryY=0.975;entryDx=0;entryDy=0;entryPerimeter=0;strokeWidth=4;" parent="1" source="3beT_dmG7uhByHbc7Ueh-22" target="3beT_dmG7uhByHbc7Ueh-17" edge="1">
                    <mxGeometry width="50" height="50" relative="1" as="geometry">
                        <mxPoint x="190" y="720" as="sourcePoint"/>
                        <mxPoint x="240" y="670" as="targetPoint"/>
                        <Array as="points">
                            <mxPoint x="130" y="940"/>
                        </Array>
                    </mxGeometry>
                </mxCell>
                <mxCell id="3beT_dmG7uhByHbc7Ueh-24" value="Requsest Each Cell Voltage" style="text;html=1;align=center;verticalAlign=middle;whiteSpace=wrap;rounded=0;" parent="1" vertex="1">
                    <mxGeometry x="-310" y="950" width="130" height="60" as="geometry"/>
                </mxCell>
                <mxCell id="3beT_dmG7uhByHbc7Ueh-25" value="0x4500 + board_id" style="rounded=0;whiteSpace=wrap;html=1;" parent="1" vertex="1">
                    <mxGeometry x="-160" y="960" width="320" height="40" as="geometry"/>
                </mxCell>
                <mxCell id="3beT_dmG7uhByHbc7Ueh-26" value="&lt;h1 style=&quot;margin-top: 0px;&quot;&gt;このメッセージがcell数分送られてくる&lt;/h1&gt;" style="text;html=1;whiteSpace=wrap;overflow=hidden;rounded=0;" parent="1" vertex="1">
                    <mxGeometry x="640" y="730" width="170" height="190" as="geometry"/>
                </mxCell>
                <mxCell id="3beT_dmG7uhByHbc7Ueh-28" value="" style="endArrow=classic;html=1;rounded=0;exitX=0.5;exitY=0;exitDx=0;exitDy=0;entryX=0.5;entryY=1;entryDx=0;entryDy=0;strokeWidth=5;" parent="1" source="3beT_dmG7uhByHbc7Ueh-24" target="3beT_dmG7uhByHbc7Ueh-3" edge="1">
                    <mxGeometry width="50" height="50" relative="1" as="geometry">
                        <mxPoint x="190" y="720" as="sourcePoint"/>
                        <mxPoint x="240" y="670" as="targetPoint"/>
                    </mxGeometry>
                </mxCell>
                <mxCell id="3beT_dmG7uhByHbc7Ueh-29" value="&lt;font style=&quot;font-size: 20px;&quot;&gt;&lt;b&gt;Request&lt;/b&gt;&lt;/font&gt;" style="text;html=1;align=center;verticalAlign=middle;whiteSpace=wrap;rounded=0;" parent="1" vertex="1">
                    <mxGeometry x="-330" y="830" width="60" height="30" as="geometry"/>
                </mxCell>
            </root>
        </mxGraphModel>
    </diagram>
</mxfile>